<svg width="250" height="52" viewBox="0 0 250 52" fill="none" xmlns="http://www.w3.org/2000/svg">
<g filter="url(#filter0_d_2_2)">
<mask id="path-1-outside-1_2_2" maskUnits="userSpaceOnUse" x="-1" y="5" width="251" height="44" fill="black">
<rect fill="white" x="-1" y="5" width="251" height="44"/>
<path d="M23.55 16.75V36.9C23.55 41.3 21.4833 43.5 17.35 43.5H10.7C6.56667 43.5 4.5 41.3 4.5 36.9V16.75C4.5 12.35 6.56667 10.15 10.7 10.15H17.35C21.4833 10.15 23.55 12.35 23.55 16.75ZM16.55 37.7V15.9C16.55 15.6333 16.45 15.4 16.25 15.2C16.0833 15 15.8667 14.9 15.6 14.9H12.45C12.1833 14.9 11.95 15 11.75 15.2C11.5833 15.4 11.5 15.6333 11.5 15.9V37.7C11.5 37.9667 11.5833 38.2 11.75 38.4C11.95 38.6 12.1833 38.7 12.45 38.7H15.6C15.8667 38.7 16.0833 38.6 16.25 38.4C16.45 38.2 16.55 37.9667 16.55 37.7ZM35.1688 43H28.4688V18.6H34.5688V19.85C35.6021 18.6833 37.1688 18.1 39.2688 18.1H40.3188C44.4521 18.1 46.5188 20.3 46.5188 24.7V43H39.8188V23.9C39.8188 23.6333 39.7188 23.4 39.5188 23.2C39.3521 23 39.1354 22.9 38.8688 22.9H36.1188C35.8521 22.9 35.6188 23 35.4188 23.2C35.2521 23.4 35.1688 23.6333 35.1688 23.9V43ZM62.9262 18.1C67.0595 18.1 69.1262 20.3 69.1262 24.7V32.6H57.7762V37.7C57.7762 37.9667 57.8595 38.2 58.0262 38.4C58.2262 38.6 58.4595 38.7 58.7262 38.7H61.4762C61.7428 38.7 61.9595 38.6 62.1262 38.4C62.3262 38.2 62.4262 37.9667 62.4262 37.7V35H69.1262V36.9C69.1262 41.3 67.0595 43.5 62.9262 43.5H57.2762C53.1428 43.5 51.0762 41.3 51.0762 36.9V24.7C51.0762 20.3 53.1428 18.1 57.2762 18.1H62.9262ZM57.7762 28.2H62.4262V23.7C62.4262 23.4333 62.3262 23.2 62.1262 23C61.9595 22.8 61.7428 22.7 61.4762 22.7H58.7262C58.4595 22.7 58.2262 22.8 58.0262 23C57.8595 23.2 57.7762 23.4333 57.7762 23.7V28.2ZM131.816 18.1C135.95 18.1 138.016 20.3 138.016 24.7V43H131.316V23.9C131.316 23.6333 131.216 23.4 131.016 23.2C130.85 23 130.633 22.9 130.366 22.9H128.216C127.95 22.9 127.716 23 127.516 23.2C127.35 23.4 127.266 23.6333 127.266 23.9V43H120.566V23.9C120.566 23.6333 120.466 23.4 120.266 23.2C120.1 23 119.883 22.9 119.616 22.9H117.466C117.2 22.9 116.966 23 116.766 23.2C116.6 23.4 116.516 23.6333 116.516 23.9V43H109.816V18.6H115.916V19.85C116.95 18.6833 118.516 18.1 120.616 18.1H121.066C123.533 18.1 125.25 18.8667 126.216 20.4C127.25 18.8667 128.966 18.1 131.366 18.1H131.816ZM155.273 18.6H160.923V43H155.273V41.2C154.24 42.7333 152.523 43.5 150.123 43.5H149.073C144.94 43.5 142.873 41.3 142.873 36.9V24.7C142.873 20.3 144.94 18.1 149.073 18.1H150.123C152.523 18.1 154.24 18.8667 155.273 20.4V18.6ZM154.223 37.7V23.9C154.223 23.6333 154.123 23.4 153.923 23.2C153.756 23 153.54 22.9 153.273 22.9H150.523C150.256 22.9 150.023 23 149.823 23.2C149.656 23.4 149.573 23.6333 149.573 23.9V37.7C149.573 37.9667 149.656 38.2 149.823 38.4C150.023 38.6 150.256 38.7 150.523 38.7H153.273C153.54 38.7 153.756 38.6 153.923 38.4C154.123 38.2 154.223 37.9667 154.223 37.7ZM184.28 43H177.28V16.15C177.28 15.8833 177.18 15.65 176.98 15.45C176.814 15.25 176.597 15.15 176.33 15.15H173.63C173.364 15.15 173.13 15.25 172.93 15.45C172.764 15.65 172.68 15.8833 172.68 16.15V43H165.68V16.75C165.68 12.35 167.747 10.15 171.88 10.15H178.08C182.214 10.15 184.28 12.35 184.28 16.75V43ZM200.573 18.1C204.706 18.1 206.773 20.3 206.773 24.7V32.6H195.423V37.7C195.423 37.9667 195.506 38.2 195.673 38.4C195.873 38.6 196.106 38.7 196.373 38.7H199.123C199.389 38.7 199.606 38.6 199.773 38.4C199.973 38.2 200.073 37.9667 200.073 37.7V35H206.773V36.9C206.773 41.3 204.706 43.5 200.573 43.5H194.923C190.789 43.5 188.723 41.3 188.723 36.9V24.7C188.723 20.3 190.789 18.1 194.923 18.1H200.573ZM195.423 28.2H200.073V23.7C200.073 23.4333 199.973 23.2 199.773 23C199.606 22.8 199.389 22.7 199.123 22.7H196.373C196.106 22.7 195.873 22.8 195.673 23C195.506 23.2 195.423 23.4333 195.423 23.7V28.2ZM222.851 18.6H228.501V43H222.851V41.2C221.818 42.7333 220.101 43.5 217.701 43.5H216.651C212.518 43.5 210.451 41.3 210.451 36.9V24.7C210.451 20.3 212.518 18.1 216.651 18.1H217.701C220.101 18.1 221.818 18.8667 222.851 20.4V18.6ZM221.801 37.7V23.9C221.801 23.6333 221.701 23.4 221.501 23.2C221.335 23 221.118 22.9 220.851 22.9H218.101C217.835 22.9 217.601 23 217.401 23.2C217.235 23.4 217.151 23.6333 217.151 23.9V37.7C217.151 37.9667 217.235 38.2 217.401 38.4C217.601 38.6 217.835 38.7 218.101 38.7H220.851C221.118 38.7 221.335 38.6 221.501 38.4C221.701 38.2 221.801 37.9667 221.801 37.7ZM243.459 18.1H244.759V24.6H241.459C240.325 24.6 239.759 25.1833 239.759 26.35V43H233.059V18.6H239.159V20.95C240.125 19.05 241.559 18.1 243.459 18.1Z"/>
<path d="M81.7047 39.15H83.7047V43.5H79.0047C74.8714 43.5 72.8047 41.3 72.8047 36.9V13.3H79.5047V18.6H83.7047V23.45H79.5047V36.75C79.5047 37.6833 79.688 38.3167 80.0547 38.65C80.4214 38.9833 80.9714 39.15 81.7047 39.15ZM105.259 24.7V36.9C105.259 41.3 103.192 43.5 99.059 43.5H93.409C89.2757 43.5 87.209 41.3 87.209 36.9V24.7C87.209 20.3 89.2757 18.1 93.409 18.1H99.059C103.192 18.1 105.259 20.3 105.259 24.7ZM98.559 38.3V23.25C98.559 22.9833 98.459 22.75 98.259 22.55C98.0923 22.35 97.8757 22.25 97.609 22.25H94.859C94.5923 22.25 94.359 22.35 94.159 22.55C93.9923 22.75 93.909 22.9833 93.909 23.25V38.3C93.909 38.5667 93.9923 38.8 94.159 39C94.359 39.2 94.5923 39.3 94.859 39.3H97.609C97.8757 39.3 98.0923 39.2 98.259 39C98.459 38.8 98.559 38.5667 98.559 38.3Z"/>
</mask>
<path d="M23.55 16.75V36.9C23.55 41.3 21.4833 43.5 17.35 43.5H10.7C6.56667 43.5 4.5 41.3 4.5 36.9V16.75C4.5 12.35 6.56667 10.15 10.7 10.15H17.35C21.4833 10.15 23.55 12.35 23.55 16.75ZM16.55 37.7V15.9C16.55 15.6333 16.45 15.4 16.25 15.2C16.0833 15 15.8667 14.9 15.6 14.9H12.45C12.1833 14.9 11.95 15 11.75 15.2C11.5833 15.4 11.5 15.6333 11.5 15.9V37.7C11.5 37.9667 11.5833 38.2 11.75 38.4C11.95 38.6 12.1833 38.7 12.45 38.7H15.6C15.8667 38.7 16.0833 38.6 16.25 38.4C16.45 38.2 16.55 37.9667 16.55 37.7ZM35.1688 43H28.4688V18.6H34.5688V19.85C35.6021 18.6833 37.1688 18.1 39.2688 18.1H40.3188C44.4521 18.1 46.5188 20.3 46.5188 24.7V43H39.8188V23.9C39.8188 23.6333 39.7188 23.4 39.5188 23.2C39.3521 23 39.1354 22.9 38.8688 22.9H36.1188C35.8521 22.9 35.6188 23 35.4188 23.2C35.2521 23.4 35.1688 23.6333 35.1688 23.9V43ZM62.9262 18.1C67.0595 18.1 69.1262 20.3 69.1262 24.7V32.6H57.7762V37.7C57.7762 37.9667 57.8595 38.2 58.0262 38.4C58.2262 38.6 58.4595 38.7 58.7262 38.7H61.4762C61.7428 38.7 61.9595 38.6 62.1262 38.4C62.3262 38.2 62.4262 37.9667 62.4262 37.7V35H69.1262V36.9C69.1262 41.3 67.0595 43.5 62.9262 43.5H57.2762C53.1428 43.5 51.0762 41.3 51.0762 36.9V24.7C51.0762 20.3 53.1428 18.1 57.2762 18.1H62.9262ZM57.7762 28.2H62.4262V23.7C62.4262 23.4333 62.3262 23.2 62.1262 23C61.9595 22.8 61.7428 22.7 61.4762 22.7H58.7262C58.4595 22.7 58.2262 22.8 58.0262 23C57.8595 23.2 57.7762 23.4333 57.7762 23.7V28.2ZM131.816 18.1C135.95 18.1 138.016 20.3 138.016 24.7V43H131.316V23.9C131.316 23.6333 131.216 23.4 131.016 23.2C130.85 23 130.633 22.9 130.366 22.9H128.216C127.95 22.9 127.716 23 127.516 23.2C127.35 23.4 127.266 23.6333 127.266 23.9V43H120.566V23.9C120.566 23.6333 120.466 23.4 120.266 23.2C120.1 23 119.883 22.9 119.616 22.9H117.466C117.2 22.9 116.966 23 116.766 23.2C116.6 23.4 116.516 23.6333 116.516 23.9V43H109.816V18.6H115.916V19.85C116.95 18.6833 118.516 18.1 120.616 18.1H121.066C123.533 18.1 125.25 18.8667 126.216 20.4C127.25 18.8667 128.966 18.1 131.366 18.1H131.816ZM155.273 18.6H160.923V43H155.273V41.2C154.24 42.7333 152.523 43.5 150.123 43.5H149.073C144.94 43.5 142.873 41.3 142.873 36.9V24.7C142.873 20.3 144.94 18.1 149.073 18.1H150.123C152.523 18.1 154.24 18.8667 155.273 20.4V18.6ZM154.223 37.7V23.9C154.223 23.6333 154.123 23.4 153.923 23.2C153.756 23 153.54 22.9 153.273 22.9H150.523C150.256 22.9 150.023 23 149.823 23.2C149.656 23.4 149.573 23.6333 149.573 23.9V37.7C149.573 37.9667 149.656 38.2 149.823 38.4C150.023 38.6 150.256 38.7 150.523 38.7H153.273C153.54 38.7 153.756 38.6 153.923 38.4C154.123 38.2 154.223 37.9667 154.223 37.7ZM184.28 43H177.28V16.15C177.28 15.8833 177.18 15.65 176.98 15.45C176.814 15.25 176.597 15.15 176.33 15.15H173.63C173.364 15.15 173.13 15.25 172.93 15.45C172.764 15.65 172.68 15.8833 172.68 16.15V43H165.68V16.75C165.68 12.35 167.747 10.15 171.88 10.15H178.08C182.214 10.15 184.28 12.35 184.28 16.75V43ZM200.573 18.1C204.706 18.1 206.773 20.3 206.773 24.7V32.6H195.423V37.7C195.423 37.9667 195.506 38.2 195.673 38.4C195.873 38.6 196.106 38.7 196.373 38.7H199.123C199.389 38.7 199.606 38.6 199.773 38.4C199.973 38.2 200.073 37.9667 200.073 37.7V35H206.773V36.9C206.773 41.3 204.706 43.5 200.573 43.5H194.923C190.789 43.5 188.723 41.3 188.723 36.9V24.7C188.723 20.3 190.789 18.1 194.923 18.1H200.573ZM195.423 28.2H200.073V23.7C200.073 23.4333 199.973 23.2 199.773 23C199.606 22.8 199.389 22.7 199.123 22.7H196.373C196.106 22.7 195.873 22.8 195.673 23C195.506 23.2 195.423 23.4333 195.423 23.7V28.2ZM222.851 18.6H228.501V43H222.851V41.2C221.818 42.7333 220.101 43.5 217.701 43.5H216.651C212.518 43.5 210.451 41.3 210.451 36.9V24.7C210.451 20.3 212.518 18.1 216.651 18.1H217.701C220.101 18.1 221.818 18.8667 222.851 20.4V18.6ZM221.801 37.7V23.9C221.801 23.6333 221.701 23.4 221.501 23.2C221.335 23 221.118 22.9 220.851 22.9H218.101C217.835 22.9 217.601 23 217.401 23.2C217.235 23.4 217.151 23.6333 217.151 23.9V37.7C217.151 37.9667 217.235 38.2 217.401 38.4C217.601 38.6 217.835 38.7 218.101 38.7H220.851C221.118 38.7 221.335 38.6 221.501 38.4C221.701 38.2 221.801 37.9667 221.801 37.7ZM243.459 18.1H244.759V24.6H241.459C240.325 24.6 239.759 25.1833 239.759 26.35V43H233.059V18.6H239.159V20.95C240.125 19.05 241.559 18.1 243.459 18.1Z" fill="white"/>
<path d="M81.7047 39.15H83.7047V43.5H79.0047C74.8714 43.5 72.8047 41.3 72.8047 36.9V13.3H79.5047V18.6H83.7047V23.45H79.5047V36.75C79.5047 37.6833 79.688 38.3167 80.0547 38.65C80.4214 38.9833 80.9714 39.15 81.7047 39.15ZM105.259 24.7V36.9C105.259 41.3 103.192 43.5 99.059 43.5H93.409C89.2757 43.5 87.209 41.3 87.209 36.9V24.7C87.209 20.3 89.2757 18.1 93.409 18.1H99.059C103.192 18.1 105.259 20.3 105.259 24.7ZM98.559 38.3V23.25C98.559 22.9833 98.459 22.75 98.259 22.55C98.0923 22.35 97.8757 22.25 97.609 22.25H94.859C94.5923 22.25 94.359 22.35 94.159 22.55C93.9923 22.75 93.909 22.9833 93.909 23.25V38.3C93.909 38.5667 93.9923 38.8 94.159 39C94.359 39.2 94.5923 39.3 94.859 39.3H97.609C97.8757 39.3 98.0923 39.2 98.259 39C98.459 38.8 98.559 38.5667 98.559 38.3Z" fill="#009C85"/>
<path d="M16.25 15.2L12.4089 18.4009L12.5541 18.5752L12.7144 18.7355L16.25 15.2ZM11.75 15.2L8.21447 11.6645L8.05409 11.8248L7.90888 11.9991L11.75 15.2ZM11.75 38.4L7.90889 41.6009L8.05409 41.7752L8.21446 41.9355L11.75 38.4ZM16.25 38.4L12.7145 34.8645L12.5541 35.0248L12.4089 35.1991L16.25 38.4ZM18.55 16.75V36.9H28.55V16.75H18.55ZM18.55 36.9C18.55 38.4044 18.1906 38.6024 18.3558 38.4266C18.4323 38.3451 18.4835 38.3423 18.3905 38.3754C18.27 38.4181 17.9536 38.5 17.35 38.5V48.5C20.2701 48.5 23.3573 47.7079 25.6442 45.2734C27.876 42.8976 28.55 39.7956 28.55 36.9H18.55ZM17.35 38.5H10.7V48.5H17.35V38.5ZM10.7 38.5C10.0964 38.5 9.77999 38.4181 9.65955 38.3754C9.56646 38.3423 9.6177 38.3451 9.69424 38.4266C9.85936 38.6024 9.5 38.4044 9.5 36.9H-0.5C-0.5 39.7956 0.17397 42.8976 2.40576 45.2734C4.69275 47.7079 7.77987 48.5 10.7 48.5V38.5ZM9.5 36.9V16.75H-0.5V36.9H9.5ZM9.5 16.75C9.5 15.2456 9.85936 15.0476 9.69424 15.2234C9.6177 15.3049 9.56646 15.3077 9.65955 15.2746C9.77999 15.2319 10.0964 15.15 10.7 15.15V5.15C7.77987 5.15 4.69275 5.94209 2.40576 8.37662C0.17397 10.7524 -0.5 13.8544 -0.5 16.75H9.5ZM10.7 15.15H17.35V5.15H10.7V15.15ZM17.35 15.15C17.9536 15.15 18.27 15.2319 18.3905 15.2746C18.4835 15.3077 18.4323 15.3049 18.3558 15.2234C18.1906 15.0476 18.55 15.2456 18.55 16.75H28.55C28.55 13.8544 27.876 10.7524 25.6442 8.37662C23.3573 5.94209 20.2701 5.15 17.35 5.15V15.15ZM21.55 37.7V15.9H11.55V37.7H21.55ZM21.55 15.9C21.55 14.2206 20.8601 12.739 19.7856 11.6645L12.7144 18.7355C12.4159 18.437 12.1069 18.0257 11.8793 17.4946C11.6492 16.9577 11.55 16.409 11.55 15.9H21.55ZM20.0911 11.9991C18.9481 10.6275 17.3089 9.9 15.6 9.9V19.9C15.0953 19.9 14.4892 19.8019 13.8672 19.5148C13.2419 19.2262 12.757 18.8187 12.4089 18.4009L20.0911 11.9991ZM15.6 9.9H12.45V19.9H15.6V9.9ZM12.45 9.9C10.7706 9.9 9.28903 10.5899 8.21447 11.6645L15.2855 18.7355C14.987 19.0341 14.5757 19.3431 14.0446 19.5707C13.5077 19.8008 12.959 19.9 12.45 19.9V9.9ZM7.90888 11.9991C6.97381 13.1212 6.5 14.4946 6.5 15.9H16.5C16.5 16.2959 16.4365 16.7438 16.2712 17.2067C16.1053 17.6712 15.8647 18.0726 15.5911 18.4009L7.90888 11.9991ZM6.5 15.9V37.7H16.5V15.9H6.5ZM6.5 37.7C6.5 39.1054 6.97381 40.4788 7.90889 41.6009L15.5911 35.1991C15.8647 35.5274 16.1053 35.9288 16.2712 36.3933C16.4365 36.8562 16.5 37.3041 16.5 37.7H6.5ZM8.21446 41.9355C9.28902 43.0101 10.7706 43.7 12.45 43.7V33.7C12.959 33.7 13.5077 33.7992 14.0446 34.0293C14.5757 34.2569 14.987 34.566 15.2855 34.8645L8.21446 41.9355ZM12.45 43.7H15.6V33.7H12.45V43.7ZM15.6 43.7C17.3089 43.7 18.9481 42.9725 20.0911 41.6009L12.4089 35.1991C12.757 34.7813 13.2419 34.3738 13.8672 34.0852C14.4892 33.7981 15.0953 33.7 15.6 33.7V43.7ZM19.7855 41.9355C20.8601 40.861 21.55 39.3794 21.55 37.7H11.55C11.55 37.191 11.6492 36.6423 11.8793 36.1054C12.1069 35.5743 12.4159 35.163 12.7145 34.8645L19.7855 41.9355ZM35.1688 43V48H40.1688V43H35.1688ZM28.4688 43H23.4688V48H28.4688V43ZM28.4688 18.6V13.6H23.4688V18.6H28.4688ZM34.5688 18.6H39.5688V13.6H34.5688V18.6ZM34.5688 19.85H29.5688V33.0362L38.3117 23.1652L34.5688 19.85ZM46.5187 43V48H51.5187V43H46.5187ZM39.8188 43H34.8188V48H39.8188V43ZM39.5187 23.2L35.6776 26.4009L35.8228 26.5752L35.9832 26.7355L39.5187 23.2ZM35.4188 23.2L31.8832 19.6645L31.7228 19.8248L31.5776 19.9991L35.4188 23.2ZM35.1688 38H28.4688V48H35.1688V38ZM33.4688 43V18.6H23.4688V43H33.4688ZM28.4688 23.6H34.5688V13.6H28.4688V23.6ZM29.5688 18.6V19.85H39.5688V18.6H29.5688ZM38.3117 23.1652C38.2455 23.2399 38.1911 23.2502 38.2634 23.2232C38.3661 23.185 38.668 23.1 39.2687 23.1V13.1C36.2594 13.1 33.1066 13.9598 30.8258 16.5348L38.3117 23.1652ZM39.2687 23.1H40.3187V13.1H39.2687V23.1ZM40.3187 23.1C40.9223 23.1 41.2388 23.1819 41.3592 23.2246C41.4523 23.2577 41.4011 23.2549 41.3245 23.1734C41.1594 22.9976 41.5187 23.1956 41.5187 24.7H51.5187C51.5187 21.8044 50.8448 18.7024 48.613 16.3266C46.326 13.8921 43.2389 13.1 40.3187 13.1V23.1ZM41.5187 24.7V43H51.5187V24.7H41.5187ZM46.5187 38H39.8188V48H46.5187V38ZM44.8188 43V23.9H34.8188V43H44.8188ZM44.8188 23.9C44.8188 22.2206 44.1288 20.739 43.0543 19.6645L35.9832 26.7355C35.6847 26.437 35.3757 26.0257 35.148 25.4946C34.9179 24.9577 34.8188 24.409 34.8188 23.9H44.8188ZM43.3599 19.9991C42.2169 18.6275 40.5777 17.9 38.8688 17.9V27.9C38.3641 27.9 37.758 27.8019 37.136 27.5148C36.5106 27.2262 36.0258 26.8187 35.6776 26.4009L43.3599 19.9991ZM38.8688 17.9H36.1188V27.9H38.8688V17.9ZM36.1188 17.9C34.4393 17.9 32.9578 18.5899 31.8832 19.6645L38.9543 26.7355C38.6558 27.0341 38.2445 27.3431 37.7133 27.5707C37.1764 27.8008 36.6278 27.9 36.1188 27.9V17.9ZM31.5776 19.9991C30.6426 21.1212 30.1688 22.4946 30.1688 23.9H40.1688C40.1688 24.2959 40.1053 24.7438 39.94 25.2067C39.7741 25.6712 39.5335 26.0726 39.2599 26.4009L31.5776 19.9991ZM30.1688 23.9V43H40.1688V23.9H30.1688ZM69.1262 32.6V37.6H74.1262V32.6H69.1262ZM57.7762 32.6V27.6H52.7762V32.6H57.7762ZM58.0262 38.4L54.1851 41.6009L54.3303 41.7752L54.4906 41.9355L58.0262 38.4ZM62.1262 38.4L58.5906 34.8645L58.4303 35.0248L58.2851 35.1991L62.1262 38.4ZM62.4262 35V30H57.4262V35H62.4262ZM69.1262 35H74.1262V30H69.1262V35ZM57.7762 28.2H52.7762V33.2H57.7762V28.2ZM62.4262 28.2V33.2H67.4262V28.2H62.4262ZM62.1262 23L58.2851 26.2009L58.4303 26.3752L58.5906 26.5355L62.1262 23ZM58.0262 23L54.4906 19.4645L54.3303 19.6248L54.1851 19.7991L58.0262 23ZM62.9262 23.1C63.5297 23.1 63.8462 23.1819 63.9666 23.2246C64.0597 23.2577 64.0085 23.2549 63.9319 23.1734C63.7668 22.9976 64.1262 23.1956 64.1262 24.7H74.1262C74.1262 21.8044 73.4522 18.7024 71.2204 16.3266C68.9334 13.8921 65.8463 13.1 62.9262 13.1V23.1ZM64.1262 24.7V32.6H74.1262V24.7H64.1262ZM69.1262 27.6H57.7762V37.6H69.1262V27.6ZM52.7762 32.6V37.7H62.7762V32.6H52.7762ZM52.7762 37.7C52.7762 39.1054 53.25 40.4788 54.1851 41.6009L61.8673 35.1991C62.1409 35.5274 62.3815 35.9288 62.5474 36.3933C62.7127 36.8562 62.7762 37.3041 62.7762 37.7H52.7762ZM54.4906 41.9355C55.5652 43.0101 57.0467 43.7 58.7262 43.7V33.7C59.2352 33.7 59.7838 33.7992 60.3208 34.0293C60.8519 34.2569 61.2632 34.566 61.5617 34.8645L54.4906 41.9355ZM58.7262 43.7H61.4762V33.7H58.7262V43.7ZM61.4762 43.7C63.1851 43.7 64.8243 42.9725 65.9673 41.6009L58.2851 35.1991C58.6332 34.7813 59.118 34.3738 59.7434 34.0852C60.3654 33.7981 60.9715 33.7 61.4762 33.7V43.7ZM65.6617 41.9355C66.7363 40.861 67.4262 39.3794 67.4262 37.7H57.4262C57.4262 37.191 57.5253 36.6423 57.7554 36.1054C57.9831 35.5743 58.2921 35.163 58.5906 34.8645L65.6617 41.9355ZM67.4262 37.7V35H57.4262V37.7H67.4262ZM62.4262 40H69.1262V30H62.4262V40ZM64.1262 35V36.9H74.1262V35H64.1262ZM64.1262 36.9C64.1262 38.4044 63.7668 38.6024 63.9319 38.4266C64.0085 38.3451 64.0597 38.3423 63.9666 38.3754C63.8462 38.4181 63.5297 38.5 62.9262 38.5V48.5C65.8463 48.5 68.9334 47.7079 71.2204 45.2734C73.4522 42.8976 74.1262 39.7956 74.1262 36.9H64.1262ZM62.9262 38.5H57.2762V48.5H62.9262V38.5ZM57.2762 38.5C56.6726 38.5 56.3562 38.4181 56.2357 38.3754C56.1426 38.3423 56.1939 38.3451 56.2704 38.4266C56.4355 38.6024 56.0762 38.4044 56.0762 36.9H46.0762C46.0762 39.7956 46.7501 42.8976 48.9819 45.2734C51.2689 47.7079 54.356 48.5 57.2762 48.5V38.5ZM56.0762 36.9V24.7H46.0762V36.9H56.0762ZM56.0762 24.7C56.0762 23.1956 56.4355 22.9976 56.2704 23.1734C56.1939 23.2549 56.1426 23.2577 56.2357 23.2246C56.3562 23.1819 56.6726 23.1 57.2762 23.1V13.1C54.356 13.1 51.2689 13.8921 48.9819 16.3266C46.7501 18.7024 46.0762 21.8044 46.0762 24.7H56.0762ZM57.2762 23.1H62.9262V13.1H57.2762V23.1ZM57.7762 33.2H62.4262V23.2H57.7762V33.2ZM67.4262 28.2V23.7H57.4262V28.2H67.4262ZM67.4262 23.7C67.4262 22.0206 66.7363 20.539 65.6617 19.4645L58.5906 26.5355C58.2921 26.237 57.9831 25.8257 57.7554 25.2946C57.5253 24.7577 57.4262 24.209 57.4262 23.7H67.4262ZM65.9673 19.7991C64.8243 18.4275 63.1851 17.7 61.4762 17.7V27.7C60.9715 27.7 60.3654 27.6019 59.7434 27.3148C59.118 27.0262 58.6332 26.6187 58.2851 26.2009L65.9673 19.7991ZM61.4762 17.7H58.7262V27.7H61.4762V17.7ZM58.7262 17.7C57.0467 17.7 55.5652 18.3899 54.4906 19.4645L61.5617 26.5355C61.2632 26.834 60.8519 27.1431 60.3208 27.3707C59.7839 27.6008 59.2352 27.7 58.7262 27.7V17.7ZM54.1851 19.7991C53.25 20.9212 52.7762 22.2946 52.7762 23.7H62.7762C62.7762 24.0959 62.7127 24.5438 62.5474 25.0067C62.3815 25.4712 62.1409 25.8726 61.8673 26.2009L54.1851 19.7991ZM52.7762 23.7V28.2H62.7762V23.7H52.7762ZM83.7047 39.15H88.7047V34.15H83.7047V39.15ZM83.7047 43.5V48.5H88.7047V43.5H83.7047ZM72.8047 13.3V8.3H67.8047V13.3H72.8047ZM79.5047 13.3H84.5047V8.3H79.5047V13.3ZM79.5047 18.6H74.5047V23.6H79.5047V18.6ZM83.7047 18.6H88.7047V13.6H83.7047V18.6ZM83.7047 23.45V28.45H88.7047V23.45H83.7047ZM79.5047 23.45V18.45H74.5047V23.45H79.5047ZM80.0547 38.65L83.4181 34.9503L80.0547 38.65ZM81.7047 44.15H83.7047V34.15H81.7047V44.15ZM78.7047 39.15V43.5H88.7047V39.15H78.7047ZM83.7047 38.5H79.0047V48.5H83.7047V38.5ZM79.0047 38.5C78.4011 38.5 78.0847 38.4181 77.9642 38.3754C77.8712 38.3423 77.9224 38.3451 77.9989 38.4266C78.1641 38.6024 77.8047 38.4044 77.8047 36.9H67.8047C67.8047 39.7956 68.4787 42.8976 70.7104 45.2734C72.9974 47.7079 76.0846 48.5 79.0047 48.5V38.5ZM77.8047 36.9V13.3H67.8047V36.9H77.8047ZM72.8047 18.3H79.5047V8.3H72.8047V18.3ZM74.5047 13.3V18.6H84.5047V13.3H74.5047ZM79.5047 23.6H83.7047V13.6H79.5047V23.6ZM78.7047 18.6V23.45H88.7047V18.6H78.7047ZM83.7047 18.45H79.5047V28.45H83.7047V18.45ZM74.5047 23.45V36.75H84.5047V23.45H74.5047ZM74.5047 36.75C74.5047 37.9636 74.6683 40.5106 76.6913 42.3497L83.4181 34.9503C84.1097 35.5791 84.3623 36.2489 84.445 36.5347C84.5259 36.8141 84.5047 36.9246 84.5047 36.75H74.5047ZM76.6913 42.3497C78.3348 43.8438 80.3123 44.15 81.7047 44.15V34.15C81.7088 34.15 81.754 34.1501 81.833 34.1604C81.9121 34.1707 82.0358 34.1925 82.1922 34.2399C82.5146 34.3376 82.9709 34.5438 83.4181 34.9503L76.6913 42.3497ZM98.259 22.55L94.4179 25.7509L94.5631 25.9252L94.7235 26.0855L98.259 22.55ZM94.159 22.55L90.6234 19.0145L90.4631 19.1748L90.3179 19.3491L94.159 22.55ZM94.159 39L90.3179 42.2009L90.4631 42.3752L90.6235 42.5355L94.159 39ZM98.259 39L94.7235 35.4645L94.5631 35.6248L94.4179 35.7991L98.259 39ZM100.259 24.7V36.9H110.259V24.7H100.259ZM100.259 36.9C100.259 38.4044 99.8996 38.6024 100.065 38.4266C100.141 38.3451 100.193 38.3423 100.099 38.3754C99.979 38.4181 99.6626 38.5 99.059 38.5V48.5C101.979 48.5 105.066 47.7079 107.353 45.2734C109.585 42.8976 110.259 39.7956 110.259 36.9H100.259ZM99.059 38.5H93.409V48.5H99.059V38.5ZM93.409 38.5C92.8054 38.5 92.489 38.4181 92.3685 38.3754C92.2755 38.3423 92.3267 38.3451 92.4032 38.4266C92.5684 38.6024 92.209 38.4044 92.209 36.9H82.209C82.209 39.7956 82.883 42.8976 85.1147 45.2734C87.4017 47.7079 90.4889 48.5 93.409 48.5V38.5ZM92.209 36.9V24.7H82.209V36.9H92.209ZM92.209 24.7C92.209 23.1956 92.5684 22.9976 92.4032 23.1734C92.3267 23.2549 92.2755 23.2577 92.3685 23.2246C92.489 23.1819 92.8054 23.1 93.409 23.1V13.1C90.4889 13.1 87.4017 13.8921 85.1147 16.3266C82.883 18.7024 82.209 21.8044 82.209 24.7H92.209ZM93.409 23.1H99.059V13.1H93.409V23.1ZM99.059 23.1C99.6626 23.1 99.979 23.1819 100.099 23.2246C100.193 23.2577 100.141 23.2549 100.065 23.1734C99.8996 22.9976 100.259 23.1956 100.259 24.7H110.259C110.259 21.8044 109.585 18.7024 107.353 16.3266C105.066 13.8921 101.979 13.1 99.059 13.1V23.1ZM103.559 38.3V23.25H93.559V38.3H103.559ZM103.559 23.25C103.559 21.5706 102.869 20.089 101.795 19.0145L94.7235 26.0855C94.4249 25.787 94.1159 25.3757 93.8883 24.8446C93.6581 24.3077 93.559 23.759 93.559 23.25H103.559ZM102.1 19.3491C100.957 17.9775 99.3179 17.25 97.609 17.25V27.25C97.1043 27.25 96.4982 27.1519 95.8762 26.8648C95.2508 26.5762 94.766 26.1687 94.4179 25.7509L102.1 19.3491ZM97.609 17.25H94.859V27.25H97.609V17.25ZM94.859 17.25C93.1796 17.25 91.698 17.9399 90.6234 19.0145L97.6945 26.0855C97.396 26.384 96.9847 26.6931 96.4536 26.9207C95.9167 27.1508 95.368 27.25 94.859 27.25V17.25ZM90.3179 19.3491C89.3828 20.4712 88.909 21.8446 88.909 23.25H98.909C98.909 23.6459 98.8455 24.0938 98.6802 24.5567C98.5143 25.0212 98.2737 25.4226 98.0001 25.7509L90.3179 19.3491ZM88.909 23.25V38.3H98.909V23.25H88.909ZM88.909 38.3C88.909 39.7054 89.3828 41.0788 90.3179 42.2009L98.0001 35.7991C98.2737 36.1274 98.5143 36.5288 98.6802 36.9933C98.8455 37.4562 98.909 37.9041 98.909 38.3H88.909ZM90.6235 42.5355C91.698 43.6101 93.1796 44.3 94.859 44.3V34.3C95.368 34.3 95.9167 34.3992 96.4536 34.6293C96.9847 34.8569 97.396 35.166 97.6945 35.4645L90.6235 42.5355ZM94.859 44.3H97.609V34.3H94.859V44.3ZM97.609 44.3C99.3179 44.3 100.957 43.5725 102.1 42.2009L94.4179 35.7991C94.766 35.3813 95.2508 34.9738 95.8762 34.6852C96.4982 34.3981 97.1043 34.3 97.609 34.3V44.3ZM101.795 42.5355C102.869 41.461 103.559 39.9794 103.559 38.3H93.559C93.559 37.791 93.6581 37.2423 93.8883 36.7054C94.1159 36.1743 94.4249 35.763 94.7235 35.4645L101.795 42.5355ZM138.016 43V48H143.016V43H138.016ZM131.316 43H126.316V48H131.316V43ZM131.016 23.2L127.175 26.4009L127.32 26.5752L127.481 26.7355L131.016 23.2ZM127.516 23.2L123.981 19.6645L123.82 19.8248L123.675 19.9991L127.516 23.2ZM127.266 43V48H132.266V43H127.266ZM120.566 43H115.566V48H120.566V43ZM120.266 23.2L116.425 26.4009L116.57 26.5752L116.731 26.7355L120.266 23.2ZM116.766 23.2L113.231 19.6645L113.071 19.8248L112.925 19.9991L116.766 23.2ZM116.516 43V48H121.516V43H116.516ZM109.816 43H104.816V48H109.816V43ZM109.816 18.6V13.6H104.816V18.6H109.816ZM115.916 18.6H120.916V13.6H115.916V18.6ZM115.916 19.85H110.916V33.0362L119.659 23.1652L115.916 19.85ZM126.216 20.4L121.987 23.0665L126.077 29.5541L130.363 23.1943L126.216 20.4ZM131.816 23.1C132.42 23.1 132.736 23.1819 132.857 23.2246C132.95 23.2577 132.899 23.2549 132.822 23.1734C132.657 22.9976 133.016 23.1956 133.016 24.7H143.016C143.016 21.8044 142.342 18.7024 140.111 16.3266C137.824 13.8921 134.737 13.1 131.816 13.1V23.1ZM133.016 24.7V43H143.016V24.7H133.016ZM138.016 38H131.316V48H138.016V38ZM136.316 43V23.9H126.316V43H136.316ZM136.316 23.9C136.316 22.2206 135.626 20.739 134.552 19.6645L127.481 26.7355C127.182 26.437 126.873 26.0257 126.646 25.4946C126.416 24.9577 126.316 24.409 126.316 23.9H136.316ZM134.858 19.9991C133.715 18.6275 132.075 17.9 130.366 17.9V27.9C129.862 27.9 129.256 27.8019 128.634 27.5148C128.008 27.2262 127.523 26.8187 127.175 26.4009L134.858 19.9991ZM130.366 17.9H128.216V27.9H130.366V17.9ZM128.216 17.9C126.537 17.9 125.055 18.5899 123.981 19.6645L131.052 26.7355C130.753 27.0341 130.342 27.3431 129.811 27.5707C129.274 27.8008 128.725 27.9 128.216 27.9V17.9ZM123.675 19.9991C122.74 21.1212 122.266 22.4946 122.266 23.9H132.266C132.266 24.2959 132.203 24.7438 132.038 25.2067C131.872 25.6712 131.631 26.0726 131.358 26.4009L123.675 19.9991ZM122.266 23.9V43H132.266V23.9H122.266ZM127.266 38H120.566V48H127.266V38ZM125.566 43V23.9H115.566V43H125.566ZM125.566 23.9C125.566 22.2206 124.876 20.739 123.802 19.6645L116.731 26.7355C116.432 26.437 116.123 26.0257 115.896 25.4946C115.666 24.9577 115.566 24.409 115.566 23.9H125.566ZM124.108 19.9991C122.965 18.6275 121.325 17.9 119.616 17.9V27.9C119.112 27.9 118.506 27.8019 117.884 27.5148C117.258 27.2262 116.773 26.8187 116.425 26.4009L124.108 19.9991ZM119.616 17.9H117.466V27.9H119.616V17.9ZM117.466 17.9C115.787 17.9 114.305 18.5899 113.231 19.6645L120.302 26.7355C120.003 27.0341 119.592 27.3431 119.061 27.5707C118.524 27.8008 117.975 27.9 117.466 27.9V17.9ZM112.925 19.9991C111.99 21.1212 111.516 22.4946 111.516 23.9H121.516C121.516 24.2959 121.453 24.7438 121.288 25.2067C121.122 25.6712 120.881 26.0726 120.608 26.4009L112.925 19.9991ZM111.516 23.9V43H121.516V23.9H111.516ZM116.516 38H109.816V48H116.516V38ZM114.816 43V18.6H104.816V43H114.816ZM109.816 23.6H115.916V13.6H109.816V23.6ZM110.916 18.6V19.85H120.916V18.6H110.916ZM119.659 23.1652C119.593 23.2399 119.539 23.2502 119.611 23.2232C119.714 23.185 120.016 23.1 120.616 23.1V13.1C117.607 13.1 114.454 13.9598 112.173 16.5348L119.659 23.1652ZM120.616 23.1H121.066V13.1H120.616V23.1ZM121.066 23.1C121.806 23.1 122.115 23.2181 122.165 23.2404C122.182 23.2481 122.15 23.2355 122.097 23.19C122.043 23.1435 122.005 23.0954 121.987 23.0665L130.446 17.7335C128.249 14.2478 124.562 13.1 121.066 13.1V23.1ZM130.363 23.1943C130.367 23.188 130.355 23.206 130.327 23.2291C130.3 23.2519 130.289 23.2531 130.318 23.2404C130.383 23.2112 130.682 23.1 131.366 23.1V13.1C127.857 13.1 124.304 14.2904 122.07 17.6057L130.363 23.1943ZM131.366 23.1H131.816V13.1H131.366V23.1ZM155.273 18.6V13.6H150.273V18.6H155.273ZM160.923 18.6H165.923V13.6H160.923V18.6ZM160.923 43V48H165.923V43H160.923ZM155.273 43H150.273V48H155.273V43ZM155.273 41.2H160.273V24.8337L151.127 38.4057L155.273 41.2ZM155.273 20.4L151.127 23.1943L160.273 36.7663V20.4H155.273ZM153.923 23.2L150.082 26.4009L150.227 26.5752L150.388 26.7355L153.923 23.2ZM149.823 23.2L146.288 19.6645L146.127 19.8248L145.982 19.9991L149.823 23.2ZM149.823 38.4L145.982 41.6009L146.127 41.7752L146.288 41.9355L149.823 38.4ZM153.923 38.4L150.388 34.8645L150.227 35.0248L150.082 35.1991L153.923 38.4ZM155.273 23.6H160.923V13.6H155.273V23.6ZM155.923 18.6V43H165.923V18.6H155.923ZM160.923 38H155.273V48H160.923V38ZM160.273 43V41.2H150.273V43H160.273ZM151.127 38.4057C151.122 38.412 151.134 38.394 151.162 38.3709C151.189 38.3481 151.2 38.3469 151.172 38.3596C151.106 38.3888 150.808 38.5 150.123 38.5V48.5C153.633 48.5 157.185 47.3096 159.419 43.9943L151.127 38.4057ZM150.123 38.5H149.073V48.5H150.123V38.5ZM149.073 38.5C148.469 38.5 148.153 38.4181 148.033 38.3754C147.94 38.3423 147.991 38.3451 148.067 38.4266C148.232 38.6024 147.873 38.4044 147.873 36.9H137.873C137.873 39.7956 138.547 42.8976 140.779 45.2734C143.066 47.7079 146.153 48.5 149.073 48.5V38.5ZM147.873 36.9V24.7H137.873V36.9H147.873ZM147.873 24.7C147.873 23.1956 148.232 22.9976 148.067 23.1734C147.991 23.2549 147.94 23.2577 148.033 23.2246C148.153 23.1819 148.469 23.1 149.073 23.1V13.1C146.153 13.1 143.066 13.8921 140.779 16.3266C138.547 18.7024 137.873 21.8044 137.873 24.7H147.873ZM149.073 23.1H150.123V13.1H149.073V23.1ZM150.123 23.1C150.808 23.1 151.106 23.2112 151.172 23.2404C151.2 23.2531 151.189 23.2519 151.162 23.2291C151.134 23.206 151.122 23.188 151.127 23.1943L159.419 17.6057C157.185 14.2904 153.633 13.1 150.123 13.1V23.1ZM160.273 20.4V18.6H150.273V20.4H160.273ZM159.223 37.7V23.9H149.223V37.7H159.223ZM159.223 23.9C159.223 22.2206 158.533 20.739 157.459 19.6645L150.388 26.7355C150.089 26.437 149.78 26.0257 149.552 25.4946C149.322 24.9577 149.223 24.409 149.223 23.9H159.223ZM157.764 19.9991C156.621 18.6275 154.982 17.9 153.273 17.9V27.9C152.768 27.9 152.162 27.8019 151.54 27.5148C150.915 27.2262 150.43 26.8187 150.082 26.4009L157.764 19.9991ZM153.273 17.9H150.523V27.9H153.273V17.9ZM150.523 17.9C148.844 17.9 147.362 18.5899 146.288 19.6645L153.359 26.7355C153.06 27.0341 152.649 27.3431 152.118 27.5707C151.581 27.8008 151.032 27.9 150.523 27.9V17.9ZM145.982 19.9991C145.047 21.1212 144.573 22.4946 144.573 23.9H154.573C154.573 24.2959 154.51 24.7438 154.344 25.2067C154.178 25.6712 153.938 26.0726 153.664 26.4009L145.982 19.9991ZM144.573 23.9V37.7H154.573V23.9H144.573ZM144.573 37.7C144.573 39.1054 145.047 40.4788 145.982 41.6009L153.664 35.1991C153.938 35.5274 154.178 35.9288 154.344 36.3933C154.51 36.8562 154.573 37.3041 154.573 37.7H144.573ZM146.288 41.9355C147.362 43.0101 148.844 43.7 150.523 43.7V33.7C151.032 33.7 151.581 33.7992 152.118 34.0293C152.649 34.2569 153.06 34.566 153.359 34.8645L146.288 41.9355ZM150.523 43.7H153.273V33.7H150.523V43.7ZM153.273 43.7C154.982 43.7 156.621 42.9725 157.764 41.6009L150.082 35.1991C150.43 34.7813 150.915 34.3738 151.54 34.0852C152.162 33.7981 152.768 33.7 153.273 33.7V43.7ZM157.459 41.9355C158.533 40.861 159.223 39.3794 159.223 37.7H149.223C149.223 37.191 149.322 36.6423 149.552 36.1054C149.78 35.5743 150.089 35.163 150.388 34.8645L157.459 41.9355ZM184.28 43V48H189.28V43H184.28ZM177.28 43H172.28V48H177.28V43ZM176.98 15.45L173.139 18.6509L173.285 18.8252L173.445 18.9855L176.98 15.45ZM172.93 15.45L169.395 11.9145L169.235 12.0748L169.089 12.2491L172.93 15.45ZM172.68 43V48H177.68V43H172.68ZM165.68 43H160.68V48H165.68V43ZM184.28 38H177.28V48H184.28V38ZM182.28 43V16.15H172.28V43H182.28ZM182.28 16.15C182.28 14.4706 181.591 12.989 180.516 11.9145L173.445 18.9855C173.146 18.687 172.837 18.2757 172.61 17.7446C172.38 17.2077 172.28 16.659 172.28 16.15H182.28ZM180.822 12.2491C179.679 10.8775 178.039 10.15 176.33 10.15V20.15C175.826 20.15 175.22 20.0519 174.598 19.7648C173.972 19.4762 173.487 19.0686 173.139 18.6509L180.822 12.2491ZM176.33 10.15H173.63V20.15H176.33V10.15ZM173.63 10.15C171.951 10.15 170.469 10.8399 169.395 11.9145L176.466 18.9855C176.167 19.284 175.756 19.5931 175.225 19.8207C174.688 20.0508 174.139 20.15 173.63 20.15V10.15ZM169.089 12.2491C168.154 13.3712 167.68 14.7446 167.68 16.15H177.68C177.68 16.5459 177.617 16.9938 177.452 17.4567C177.286 17.9212 177.045 18.3226 176.772 18.6509L169.089 12.2491ZM167.68 16.15V43H177.68V16.15H167.68ZM172.68 38H165.68V48H172.68V38ZM170.68 43V16.75H160.68V43H170.68ZM170.68 16.75C170.68 15.2456 171.04 15.0476 170.875 15.2234C170.798 15.3049 170.747 15.3077 170.84 15.2746C170.96 15.2319 171.277 15.15 171.88 15.15V5.15C168.96 5.15 165.873 5.94209 163.586 8.37662C161.354 10.7524 160.68 13.8544 160.68 16.75H170.68ZM171.88 15.15H178.08V5.15H171.88V15.15ZM178.08 15.15C178.684 15.15 179 15.2319 179.121 15.2746C179.214 15.3077 179.163 15.3049 179.086 15.2234C178.921 15.0476 179.28 15.2456 179.28 16.75H189.28C189.28 13.8544 188.607 10.7524 186.375 8.37662C184.088 5.94209 181.001 5.15 178.08 5.15V15.15ZM179.28 16.75V43H189.28V16.75H179.28ZM206.773 32.6V37.6H211.773V32.6H206.773ZM195.423 32.6V27.6H190.423V32.6H195.423ZM195.673 38.4L191.832 41.6009L191.977 41.7752L192.137 41.9355L195.673 38.4ZM199.773 38.4L196.237 34.8645L196.077 35.0248L195.932 35.1991L199.773 38.4ZM200.073 35V30H195.073V35H200.073ZM206.773 35H211.773V30H206.773V35ZM195.423 28.2H190.423V33.2H195.423V28.2ZM200.073 28.2V33.2H205.073V28.2H200.073ZM199.773 23L195.932 26.2009L196.077 26.3752L196.237 26.5355L199.773 23ZM195.673 23L192.137 19.4645L191.977 19.6248L191.832 19.7991L195.673 23ZM200.573 23.1C201.176 23.1 201.493 23.1819 201.613 23.2246C201.706 23.2577 201.655 23.2549 201.578 23.1734C201.413 22.9976 201.773 23.1956 201.773 24.7H211.773C211.773 21.8044 211.099 18.7024 208.867 16.3266C206.58 13.8921 203.493 13.1 200.573 13.1V23.1ZM201.773 24.7V32.6H211.773V24.7H201.773ZM206.773 27.6H195.423V37.6H206.773V27.6ZM190.423 32.6V37.7H200.423V32.6H190.423ZM190.423 37.7C190.423 39.1054 190.896 40.4788 191.832 41.6009L199.514 35.1991C199.787 35.5274 200.028 35.9288 200.194 36.3933C200.359 36.8562 200.423 37.3041 200.423 37.7H190.423ZM192.137 41.9355C193.212 43.0101 194.693 43.7 196.373 43.7V33.7C196.882 33.7 197.43 33.7992 197.967 34.0293C198.498 34.2569 198.91 34.566 199.208 34.8645L192.137 41.9355ZM196.373 43.7H199.123V33.7H196.373V43.7ZM199.123 43.7C200.832 43.7 202.471 42.9725 203.614 41.6009L195.932 35.1991C196.28 34.7813 196.764 34.3738 197.39 34.0852C198.012 33.7981 198.618 33.7 199.123 33.7V43.7ZM203.308 41.9355C204.383 40.861 205.073 39.3794 205.073 37.7H195.073C195.073 37.191 195.172 36.6423 195.402 36.1054C195.63 35.5743 195.939 35.163 196.237 34.8645L203.308 41.9355ZM205.073 37.7V35H195.073V37.7H205.073ZM200.073 40H206.773V30H200.073V40ZM201.773 35V36.9H211.773V35H201.773ZM201.773 36.9C201.773 38.4044 201.413 38.6024 201.578 38.4266C201.655 38.3451 201.706 38.3423 201.613 38.3754C201.493 38.4181 201.176 38.5 200.573 38.5V48.5C203.493 48.5 206.58 47.7079 208.867 45.2734C211.099 42.8976 211.773 39.7956 211.773 36.9H201.773ZM200.573 38.5H194.923V48.5H200.573V38.5ZM194.923 38.5C194.319 38.5 194.003 38.4181 193.882 38.3754C193.789 38.3423 193.84 38.3451 193.917 38.4266C194.082 38.6024 193.723 38.4044 193.723 36.9H183.723C183.723 39.7956 184.397 42.8976 186.628 45.2734C188.915 47.7079 192.003 48.5 194.923 48.5V38.5ZM193.723 36.9V24.7H183.723V36.9H193.723ZM193.723 24.7C193.723 23.1956 194.082 22.9976 193.917 23.1734C193.84 23.2549 193.789 23.2577 193.882 23.2246C194.003 23.1819 194.319 23.1 194.923 23.1V13.1C192.003 13.1 188.915 13.8921 186.628 16.3266C184.397 18.7024 183.723 21.8044 183.723 24.7H193.723ZM194.923 23.1H200.573V13.1H194.923V23.1ZM195.423 33.2H200.073V23.2H195.423V33.2ZM205.073 28.2V23.7H195.073V28.2H205.073ZM205.073 23.7C205.073 22.0206 204.383 20.539 203.308 19.4645L196.237 26.5355C195.939 26.237 195.63 25.8257 195.402 25.2946C195.172 24.7577 195.073 24.209 195.073 23.7H205.073ZM203.614 19.7991C202.471 18.4275 200.832 17.7 199.123 17.7V27.7C198.618 27.7 198.012 27.6019 197.39 27.3148C196.764 27.0262 196.28 26.6187 195.932 26.2009L203.614 19.7991ZM199.123 17.7H196.373V27.7H199.123V17.7ZM196.373 17.7C194.693 17.7 193.212 18.3899 192.137 19.4645L199.208 26.5355C198.91 26.834 198.498 27.1431 197.967 27.3707C197.43 27.6008 196.882 27.7 196.373 27.7V17.7ZM191.832 19.7991C190.896 20.9212 190.423 22.2946 190.423 23.7H200.423C200.423 24.0959 200.359 24.5438 200.194 25.0067C200.028 25.4712 199.787 25.8726 199.514 26.2009L191.832 19.7991ZM190.423 23.7V28.2H200.423V23.7H190.423ZM222.851 18.6V13.6H217.851V18.6H222.851ZM228.501 18.6H233.501V13.6H228.501V18.6ZM228.501 43V48H233.501V43H228.501ZM222.851 43H217.851V48H222.851V43ZM222.851 41.2H227.851V24.8337L218.705 38.4057L222.851 41.2ZM222.851 20.4L218.705 23.1943L227.851 36.7663V20.4H222.851ZM221.501 23.2L217.66 26.4009L217.805 26.5752L217.966 26.7355L221.501 23.2ZM217.401 23.2L213.866 19.6645L213.705 19.8248L213.56 19.9991L217.401 23.2ZM217.401 38.4L213.56 41.6009L213.705 41.7752L213.866 41.9355L217.401 38.4ZM221.501 38.4L217.966 34.8645L217.805 35.0248L217.66 35.1991L221.501 38.4ZM222.851 23.6H228.501V13.6H222.851V23.6ZM223.501 18.6V43H233.501V18.6H223.501ZM228.501 38H222.851V48H228.501V38ZM227.851 43V41.2H217.851V43H227.851ZM218.705 38.4057C218.701 38.412 218.713 38.394 218.74 38.3709C218.768 38.3481 218.778 38.3469 218.75 38.3596C218.684 38.3888 218.386 38.5 217.701 38.5V48.5C221.211 48.5 224.763 47.3096 226.998 43.9943L218.705 38.4057ZM217.701 38.5H216.651V48.5H217.701V38.5ZM216.651 38.5C216.048 38.5 215.731 38.4181 215.611 38.3754C215.518 38.3423 215.569 38.3451 215.645 38.4266C215.811 38.6024 215.451 38.4044 215.451 36.9H205.451C205.451 39.7956 206.125 42.8976 208.357 45.2734C210.644 47.7079 213.731 48.5 216.651 48.5V38.5ZM215.451 36.9V24.7H205.451V36.9H215.451ZM215.451 24.7C215.451 23.1956 215.811 22.9976 215.645 23.1734C215.569 23.2549 215.518 23.2577 215.611 23.2246C215.731 23.1819 216.048 23.1 216.651 23.1V13.1C213.731 13.1 210.644 13.8921 208.357 16.3266C206.125 18.7024 205.451 21.8044 205.451 24.7H215.451ZM216.651 23.1H217.701V13.1H216.651V23.1ZM217.701 23.1C218.386 23.1 218.684 23.2112 218.75 23.2404C218.778 23.2531 218.768 23.2519 218.74 23.2291C218.713 23.206 218.701 23.188 218.705 23.1943L226.998 17.6057C224.763 14.2904 221.211 13.1 217.701 13.1V23.1ZM227.851 20.4V18.6H217.851V20.4H227.851ZM226.801 37.7V23.9H216.801V37.7H226.801ZM226.801 23.9C226.801 22.2206 226.111 20.739 225.037 19.6645L217.966 26.7355C217.667 26.437 217.358 26.0257 217.13 25.4946C216.9 24.9577 216.801 24.409 216.801 23.9H226.801ZM225.342 19.9991C224.199 18.6275 222.56 17.9 220.851 17.9V27.9C220.346 27.9 219.74 27.8019 219.118 27.5148C218.493 27.2262 218.008 26.8187 217.66 26.4009L225.342 19.9991ZM220.851 17.9H218.101V27.9H220.851V17.9ZM218.101 17.9C216.422 17.9 214.94 18.5899 213.866 19.6645L220.937 26.7355C220.638 27.0341 220.227 27.3431 219.696 27.5707C219.159 27.8008 218.61 27.9 218.101 27.9V17.9ZM213.56 19.9991C212.625 21.1212 212.151 22.4946 212.151 23.9H222.151C222.151 24.2959 222.088 24.7438 221.922 25.2067C221.756 25.6712 221.516 26.0726 221.242 26.4009L213.56 19.9991ZM212.151 23.9V37.7H222.151V23.9H212.151ZM212.151 37.7C212.151 39.1054 212.625 40.4788 213.56 41.6009L221.242 35.1991C221.516 35.5274 221.756 35.9288 221.922 36.3933C222.088 36.8562 222.151 37.3041 222.151 37.7H212.151ZM213.866 41.9355C214.94 43.0101 216.422 43.7 218.101 43.7V33.7C218.61 33.7 219.159 33.7992 219.696 34.0293C220.227 34.2569 220.638 34.566 220.937 34.8645L213.866 41.9355ZM218.101 43.7H220.851V33.7H218.101V43.7ZM220.851 43.7C222.56 43.7 224.199 42.9725 225.342 41.6009L217.66 35.1991C218.008 34.7813 218.493 34.3738 219.118 34.0852C219.74 33.7981 220.346 33.7 220.851 33.7V43.7ZM225.037 41.9355C226.111 40.861 226.801 39.3794 226.801 37.7H216.801C216.801 37.191 216.9 36.6423 217.13 36.1054C217.358 35.5743 217.667 35.163 217.966 34.8645L225.037 41.9355ZM244.759 18.1H249.759V13.1H244.759V18.1ZM244.759 24.6V29.6H249.759V24.6H244.759ZM239.759 43V48H244.759V43H239.759ZM233.059 43H228.059V48H233.059V43ZM233.059 18.6V13.6H228.059V18.6H233.059ZM239.159 18.6H244.159V13.6H239.159V18.6ZM239.159 20.95H234.159L243.615 23.2173L239.159 20.95ZM243.459 23.1H244.759V13.1H243.459V23.1ZM239.759 18.1V24.6H249.759V18.1H239.759ZM244.759 19.6H241.459V29.6H244.759V19.6ZM241.459 19.6C240.084 19.6 238.143 19.9623 236.597 21.5536C235.077 23.118 234.759 25.0317 234.759 26.35H244.759C244.759 26.5016 244.723 27.5404 243.77 28.5214C242.791 29.5294 241.7 29.6 241.459 29.6V19.6ZM234.759 26.35V43H244.759V26.35H234.759ZM239.759 38H233.059V48H239.759V38ZM238.059 43V18.6H228.059V43H238.059ZM233.059 23.6H239.159V13.6H233.059V23.6ZM234.159 18.6V20.95H244.159V18.6H234.159ZM243.615 23.2173C243.708 23.0353 243.774 22.949 243.796 22.9238C243.814 22.902 243.792 22.9333 243.721 22.9802C243.687 23.0026 243.648 23.0244 243.606 23.0438C243.564 23.0631 243.525 23.0771 243.492 23.0866C243.422 23.1065 243.403 23.1 243.459 23.1V13.1C241.633 13.1 239.817 13.5707 238.196 14.6448C236.607 15.698 235.484 17.146 234.702 18.6827L243.615 23.2173Z" fill="black" mask="url(#path-1-outside-1_2_2)"/>
</g>
<defs>
<filter id="filter0_d_2_2" x="0.5" y="10.15" width="248.259" height="41.35" filterUnits="userSpaceOnUse" color-interpolation-filters="sRGB">
<feFlood flood-opacity="0" result="BackgroundImageFix"/>
<feColorMatrix in="SourceAlpha" type="matrix" values="0 0 0 0 0 0 0 0 0 0 0 0 0 0 0 0 0 0 127 0" result="hardAlpha"/>
<feOffset dy="4"/>
<feGaussianBlur stdDeviation="2"/>
<feComposite in2="hardAlpha" operator="out"/>
<feColorMatrix type="matrix" values="0 0 0 0 0 0 0 0 0 0 0 0 0 0 0 0 0 0 0.25 0"/>
<feBlend mode="normal" in2="BackgroundImageFix" result="effect1_dropShadow_2_2"/>
<feBlend mode="normal" in="SourceGraphic" in2="effect1_dropShadow_2_2" result="shape"/>
</filter>
</defs>
</svg>
